<svg width="104" height="104" viewBox="0 0 104 104" fill="none" xmlns="http://www.w3.org/2000/svg">
<path d="M74.701 45.2719L68.0161 34.1099L76.4853 23.3244C76.9713 22.7054 77.9343 22.7948 78.298 23.4928L84.9161 36.1922L74.701 45.2106L74.701 45.2719Z" fill="#F1A710"/>
<path d="M19.1055 36.1922L25.7028 23.4956C26.0659 22.7968 27.0297 22.7067 27.5161 23.3261L35.9839 34.1099L29.299 45.2719L19.1055 36.1922Z" fill="#FDBD09"/>
<path d="M23.9424 35.6225L27.1618 29.1836" stroke="white" stroke-width="3.25" stroke-linecap="round"/>
<path fill-rule="evenodd" clip-rule="evenodd" d="M53.8877 7.73947C53.0622 6.25351 50.9252 6.25351 50.0997 7.73947L29.3263 45.1331L7.92648 26.518C6.35202 25.1484 3.94159 26.5777 4.38796 28.6162L13.3034 69.3314L8.29146 69.3314C6.24056 69.3314 4.70236 71.2077 5.10457 73.2188L8.31208 89.2563C8.51463 90.2691 9.40386 90.9981 10.4367 90.9981L93.5509 90.9981C94.5837 90.9981 95.4729 90.2691 95.6754 89.2563L98.883 73.2188C99.2852 71.2077 97.747 69.3314 95.6961 69.3314L90.6833 69.3314L99.5987 28.6162C100.045 26.5777 97.6346 25.1484 96.0601 26.518L74.661 45.1326L53.8877 7.73947Z" fill="#FDBD09"/>
<path d="M5.10438 73.2194C4.70216 71.2083 6.24037 69.332 8.29127 69.332L95.6959 69.332C97.7468 69.332 99.285 71.2083 98.8828 73.2194L95.6753 89.257C95.4727 90.2697 94.5835 90.9987 93.5507 90.9987L10.4365 90.9987C9.40367 90.9987 8.51444 90.2697 8.31189 89.257L5.10438 73.2194Z" fill="#F1A710"/>
<path fill-rule="evenodd" clip-rule="evenodd" d="M51.9937 6.625C51.2531 6.62501 50.5124 6.9965 50.0997 7.73947L29.3263 45.1331L7.92648 26.518C6.35202 25.1484 3.94159 26.5777 4.38796 28.6162L13.3034 69.3314L8.29146 69.3314C6.24056 69.3314 4.70236 71.2077 5.10457 73.2188L8.31208 89.2563C8.51463 90.2691 9.40386 90.9981 10.4367 90.9981L51.9937 90.9981L51.9937 6.625Z" fill="#FED925"/>
<path d="M10.5159 73.668L39.0001 73.668" stroke="white" stroke-width="3.25" stroke-linecap="round"/>
<path d="M40.3032 61.0174L42.0663 59.758L40.3032 61.0174L48.4739 72.4564C50.2021 74.8759 53.798 74.8759 55.5263 72.4564L63.697 61.0174C64.7732 59.5107 64.7732 57.4867 63.697 55.98L55.5262 44.541L53.7631 45.8004L55.5262 44.541C53.798 42.1215 50.2021 42.1215 48.4739 44.541L40.3032 55.98C39.227 57.4867 39.227 59.5107 40.3032 61.0174Z" fill="#7A5CD6" stroke="#FFF1AE" stroke-width="4.33333"/>
<path d="M31.439 50.9151L49.8339 17.332" stroke="white" stroke-width="3.25" stroke-linecap="round"/>
<path d="M51.9106 52.1016L47.2328 58.8297" stroke="white" stroke-width="4.33333" stroke-linecap="round"/>
<circle cx="17.3333" cy="82.3333" r="4.33333" fill="#E19B0D"/>
<circle cx="86.6666" cy="82.3333" r="4.33333" fill="#B8730B"/>
<circle cx="69.3333" cy="82.3333" r="4.33333" fill="#B8730B"/>
<circle cx="34.6666" cy="82.3333" r="4.33333" fill="#E19B0D"/>
<path d="M47.6667 82.3333C47.6667 79.9401 49.6068 78 52.0001 78L52.0001 86.6667C49.6068 86.6667 47.6667 84.7266 47.6667 82.3333Z" fill="#E19B0D"/>
<path d="M56.3333 82.3346C56.3333 84.7279 54.3932 86.668 51.9999 86.668L51.9999 78.0013C54.3932 78.0013 56.3333 79.9414 56.3333 82.3346Z" fill="#B8730B"/>
<path d="M65.9142 46.1721C65.1801 45.805 65.1801 44.7575 65.9142 44.3904L68.7065 42.9942C69.863 42.416 70.8007 41.4783 71.3789 40.3218L72.7751 37.5295C73.1422 36.7954 74.1897 36.7954 74.5568 37.5295L75.9528 40.3217C76.531 41.4782 77.4688 42.416 78.6253 42.9943L81.4174 44.3903C82.1515 44.7574 82.1515 45.805 81.4174 46.172L78.6251 47.5682C77.4686 48.1464 76.5309 49.0841 75.9526 50.2406L74.5565 53.0329C74.1894 53.767 73.1418 53.767 72.7748 53.0329L71.3788 50.2407C70.8006 49.0842 69.8628 48.1464 68.7063 47.5682L65.9142 46.1721Z" fill="white"/>
<path d="M28.5111 69.8179C28.1107 69.6177 28.1107 69.0463 28.5111 68.8461L30.0342 68.0846C30.665 67.7692 31.1765 67.2577 31.4919 66.6269L32.2534 65.1038C32.4536 64.7034 33.025 64.7034 33.2252 65.1038L33.9867 66.6268C34.3021 67.2577 34.8136 67.7692 35.4444 68.0846L36.9674 68.8461C37.3678 69.0463 37.3678 69.6177 36.9674 69.8179L35.4443 70.5795C34.8135 70.8949 34.302 71.4063 33.9866 72.0371L33.2251 73.5602C33.0249 73.9606 32.4535 73.9606 32.2533 73.5602L31.4918 72.0372C31.1764 71.4064 30.6649 70.8949 30.0341 70.5794L28.5111 69.8179Z" fill="white"/>
<path d="M65.5035 45.9587C64.9389 45.6764 64.9389 44.8705 65.5035 44.5882L69.1181 42.7809C70.0077 42.3361 70.729 41.6147 71.1739 40.7252L72.9812 37.1105C73.2635 36.5459 74.0694 36.5459 74.3517 37.1106L76.1588 40.725C76.6036 41.6147 77.325 42.3361 78.2146 42.7809L81.829 44.5881C82.3937 44.8705 82.3937 45.6763 81.829 45.9586L78.2144 47.7659C77.3248 48.2107 76.6035 48.9321 76.1587 49.8217L74.3514 53.4363C74.069 54.001 73.2632 54.0009 72.9809 53.4363L71.1737 49.8218C70.7289 48.9321 70.0076 48.2108 69.118 47.7659L65.5035 45.9587Z" fill="white"/>
<path d="M28.2886 69.7097C27.9806 69.5557 27.9806 69.1162 28.2886 68.9622L30.2602 67.9764C30.7454 67.7337 31.1388 67.3403 31.3814 66.8551L32.3673 64.8834C32.5213 64.5754 32.9608 64.5754 33.1148 64.8835L34.1005 66.855C34.3432 67.3403 34.7366 67.7337 35.2219 67.9764L37.1934 68.9621C37.5014 69.1161 37.5014 69.5557 37.1934 69.7097L35.2218 70.6955C34.7365 70.9381 34.3431 71.3316 34.1005 71.8168L33.1146 73.7884C32.9606 74.0964 32.5211 74.0964 32.3671 73.7884L31.3814 71.8168C31.1388 71.3316 30.7453 70.9381 30.2601 70.6955L28.2886 69.7097Z" fill="white"/>
</svg>
