<svg width="144" height="144" viewBox="0 0 144 144" fill="none" xmlns="http://www.w3.org/2000/svg">
<path d="M107.296 21H36.7068C32.5397 21 28.6709 23.1619 26.4869 26.7108L10.5575 52.5961C7.83921 57.0133 8.2665 62.6771 11.6168 66.6365L62.8406 127.174C67.634 132.839 76.3685 132.839 81.1619 127.174L132.386 66.6365C135.736 62.6771 136.163 57.0133 133.445 52.5961L117.516 26.7108C115.332 23.1619 111.463 21 107.296 21Z" fill="#5CE7FF"/>
<path d="M135.172 60H102L74.6426 131.13C77.088 130.583 79.3927 129.264 81.1611 127.174L132.385 66.6365C134.012 64.7137 134.95 62.3888 135.172 60Z" fill="#04A2BD"/>
<path d="M74.6421 131.13L102 60H42L69.3579 131.13C71.0956 131.52 72.9044 131.52 74.6421 131.13Z" fill="#00C9EC"/>
<path d="M69.3599 131.13L42.002 60H8.83008C9.05285 62.3888 9.99051 64.7137 11.6176 66.6365L62.8414 127.174C64.6098 129.264 66.9145 130.583 69.3599 131.13Z" fill="#4BE4FF"/>
<path d="M135.171 60C135.407 57.4699 134.841 54.8681 133.443 52.5961L117.514 26.7108C115.33 23.1619 111.461 21 107.294 21H91.166L101.999 60H135.171Z" fill="#8EEEFF"/>
<path d="M42 60H102L91.1667 21H52.8333L42 60Z" fill="#1FDDFF"/>
<path d="M52.8346 21H36.7068C32.5397 21 28.6709 23.1619 26.4869 26.7108L10.5575 52.5961C9.15934 54.8681 8.59337 57.4699 8.82931 60H42.0013L52.8346 21Z" fill="#8EEEFF"/>
<path d="M99.3167 41.3666C100.422 39.1554 103.578 39.1554 104.683 41.3666L107.317 46.6334C109.058 50.1169 111.883 52.9415 115.367 54.6833L120.633 57.3167C122.845 58.4223 122.845 61.5777 120.633 62.6833L115.367 65.3167C111.883 67.0585 109.058 69.8831 107.317 73.3666L104.683 78.6334C103.578 80.8446 100.422 80.8446 99.3167 78.6334L96.6833 73.3666C94.9415 69.8831 92.1169 67.0585 88.6334 65.3167L83.3666 62.6833C81.1554 61.5777 81.1554 58.4223 83.3666 57.3167L88.6334 54.6833C92.1169 52.9415 94.9415 50.1169 96.6833 46.6334L99.3167 41.3666Z" fill="white"/>
</svg>
