<svg width="40" height="37" viewBox="0 0 40 37" fill="none" xmlns="http://www.w3.org/2000/svg">
<path d="M20.0802 3.78223C15.5181 -0.799805 8.13701 -0.799805 3.5749 3.78223C-0.987207 8.36426 -0.987207 15.8051 3.5749 20.3871L20.0802 37.002L36.5854 20.3971C41.1476 15.815 41.1476 8.37422 36.5854 3.79219C32.0333 -0.799804 24.6423 -0.799805 20.0802 3.78223Z" fill="#EE58C1"/>
<path d="M8.96357 15.0186C5.33779 11.3629 4.60068 5.91426 6.74229 1.52148C5.59678 2.0793 4.53096 2.83633 3.58467 3.78262C-0.977441 8.36465 -0.977441 15.8055 3.58467 20.3875L20.08 37.0023L25.439 31.6035L8.96357 15.0186Z" fill="#CC1495"/>
<path d="M28.1484 4.9272C26.0068 7.61666 31.0769 9.42955 32.571 11.7206C34.0652 14.0116 33.099 16.1831 34.3042 16.8305C35.5195 17.478 37.3124 13.2944 36.416 9.40963C35.5195 5.52486 30.7681 1.6401 28.1484 4.9272V4.9272Z" fill="#F490D6"/>
</svg>
